<svg width="32" height="32" viewBox="0 0 32 32" fill="none" xmlns="http://www.w3.org/2000/svg">
<path d="M24.3333 20.4445C24.3333 21.0589 23.8367 21.5556 23.2222 21.5556H21C20.3856 21.5556 19.8889 21.0589 19.8889 20.4445C19.8889 19.83 20.3856 19.3334 21 19.3334H23.2222C23.8367 19.3334 24.3333 19.83 24.3333 20.4445ZM29.3333 19.3334V24.8889C29.3333 27.34 27.34 29.3334 24.8889 29.3334H7.11112C4.66 29.3334 2.66667 27.34 2.66667 24.8889V19.3334C2.66667 16.8822 4.66 14.8889 7.11112 14.8889H8.22223V7.11113C8.22223 4.66002 10.2156 2.66669 12.6667 2.66669H19.3333C21.7844 2.66669 23.7778 4.66002 23.7778 7.11113V14.8889H24.8889C27.34 14.8889 29.3333 16.8822 29.3333 19.3334ZM10.4444 14.8889H21.5556V7.11113C21.5556 5.88558 20.5589 4.88891 19.3333 4.88891H12.6667C11.4411 4.88891 10.4444 5.88558 10.4444 7.11113V14.8889ZM7.11112 27.1111H14.8889V17.1111H7.11112C5.88556 17.1111 4.88889 18.1078 4.88889 19.3334V24.8889C4.88889 26.1145 5.88556 27.1111 7.11112 27.1111ZM27.1111 19.3334C27.1111 18.1078 26.1144 17.1111 24.8889 17.1111H17.1111V27.1111H24.8889C26.1144 27.1111 27.1111 26.1145 27.1111 24.8889V19.3334ZM11 19.3334H8.77778C8.16334 19.3334 7.66667 19.83 7.66667 20.4445C7.66667 21.0589 8.16334 21.5556 8.77778 21.5556H11C11.6144 21.5556 12.1111 21.0589 12.1111 20.4445C12.1111 19.83 11.6144 19.3334 11 19.3334ZM18.2222 8.22224C18.2222 7.6078 17.7256 7.11113 17.1111 7.11113H14.8889C14.2744 7.11113 13.7778 7.6078 13.7778 8.22224C13.7778 8.83669 14.2744 9.33335 14.8889 9.33335H17.1111C17.7256 9.33335 18.2222 8.83669 18.2222 8.22224Z" fill="#427CDE"/>
</svg>
