<svg width="32" height="32" viewBox="0 0 32 32" fill="none" xmlns="http://www.w3.org/2000/svg">
<path d="M29.1446 13.0539C27.3358 10.1707 23.2213 5.33331 16 5.33331C8.77868 5.33331 4.6642 10.1707 2.85537 13.0539C2.29619 13.9391 2 14.9593 2 16C2 17.0407 2.29619 18.0608 2.85537 18.946C4.6642 21.8293 8.77868 26.6666 16 26.6666C23.2213 26.6666 27.3358 21.8293 29.1446 18.946C29.7038 18.0608 30 17.0407 30 16C30 14.9593 29.7038 13.9391 29.1446 13.0539ZM27.1562 17.7509C25.6028 20.2233 22.0866 24.3838 16 24.3838C9.91342 24.3838 6.39722 20.2233 4.8438 17.7509C4.51158 17.2248 4.33561 16.6185 4.33561 16C4.33561 15.3815 4.51158 14.7752 4.8438 14.249C6.39722 11.7767 9.91342 7.61617 16 7.61617C22.0866 7.61617 25.6028 11.7721 27.1562 14.249C27.4884 14.7752 27.6644 15.3815 27.6644 16C27.6644 16.6185 27.4884 17.2248 27.1562 17.7509Z" fill="#427CDE"/>
<path d="M16 10.2928C14.8467 10.2928 13.7193 10.6275 12.7604 11.2547C11.8014 11.8818 11.054 12.7731 10.6127 13.8159C10.1714 14.8588 10.0559 16.0063 10.2809 17.1134C10.5059 18.2205 11.0612 19.2374 11.8767 20.0355C12.6922 20.8337 13.7313 21.3773 14.8624 21.5975C15.9935 21.8177 17.166 21.7047 18.2315 21.2727C19.297 20.8407 20.2077 20.1092 20.8484 19.1707C21.4892 18.2322 21.8312 17.1287 21.8312 16C21.8293 14.4869 21.2144 13.0363 20.1212 11.9664C19.0281 10.8965 17.546 10.2946 16 10.2928ZM16 19.4243C15.308 19.4243 14.6316 19.2234 14.0562 18.8472C13.4809 18.4709 13.0324 17.9361 12.7676 17.3104C12.5028 16.6847 12.4335 15.9962 12.5685 15.3319C12.7035 14.6677 13.0367 14.0575 13.526 13.5786C14.0153 13.0997 14.6388 12.7736 15.3174 12.6415C15.9961 12.5094 16.6996 12.5772 17.3389 12.8363C17.9782 13.0955 18.5246 13.5344 18.9091 14.0975C19.2935 14.6607 19.4987 15.3227 19.4987 16C19.4987 16.9082 19.1301 17.7791 18.474 18.4213C17.8178 19.0635 16.9279 19.4243 16 19.4243Z" fill="#427CDE"/>
</svg>
