<svg width="116" height="40" viewBox="0 0 116 40" fill="none" xmlns="http://www.w3.org/2000/svg">
<path fill-rule="evenodd" clip-rule="evenodd" d="M104.859 7.96581V3.47777C104.859 3.34346 104.866 3.21217 104.88 3.08522C104.895 2.95828 104.956 2.84248 105.061 2.73735C105.181 2.61853 105.3 2.5543 105.42 2.54731C105.54 2.53957 105.652 2.53588 105.757 2.53588H110.541C110.796 2.53588 111.103 2.56205 111.463 2.61409C111.822 2.66651 112.128 2.81962 112.384 3.07417C112.638 3.32834 112.795 3.66488 112.854 4.08397C112.915 4.5024 112.944 4.88427 112.944 5.22855C112.944 5.37798 112.94 5.54988 112.934 5.74465C112.926 5.93875 112.904 6.13323 112.866 6.32799C112.829 6.52247 112.776 6.71355 112.709 6.90028C112.642 7.08692 112.548 7.24815 112.428 7.38284C112.174 7.68207 111.87 7.8536 111.518 7.89903C111.167 7.94333 110.826 7.96581 110.496 7.96581H104.859ZM104.859 15.8869V10.3219H112.227C112.69 10.3219 113.132 10.2552 113.551 10.1205C113.971 9.98588 114.33 9.79876 114.629 9.55895C114.944 9.30477 115.191 8.99856 115.371 8.63916C115.55 8.28015 115.685 7.90233 115.775 7.5061C115.865 7.10949 115.924 6.71355 115.955 6.31694C115.985 5.92033 116 5.565 116 5.25066C116 4.92158 115.989 4.57031 115.966 4.19618C115.943 3.82205 115.891 3.44792 115.809 3.07417C115.726 2.70004 115.607 2.34509 115.449 2.00827C115.292 1.67173 115.078 1.37619 114.81 1.12164C114.569 0.882575 114.311 0.699148 114.034 0.572298C113.757 0.444975 113.48 0.351278 113.203 0.291867C112.926 0.2317 112.657 0.198166 112.394 0.190421C112.132 0.183337 111.897 0.179277 111.688 0.179277H104.207C103.937 0.179277 103.638 0.216588 103.308 0.291867C102.979 0.366769 102.687 0.531302 102.432 0.785192C102.163 1.05486 102.005 1.33859 101.961 1.63782C101.915 1.93743 101.894 2.23703 101.894 2.53588V15.8869H104.859ZM101.309 15.8869V13.5308H92.9082C92.6688 13.5308 92.4628 13.5197 92.2906 13.4972C92.1185 13.4754 91.9874 13.419 91.8977 13.329C91.7473 13.2098 91.6731 13.0076 91.6731 12.7228V9.04352H100.994V6.68663H91.6731V3.52245C91.6731 3.40325 91.6842 3.27639 91.7064 3.1417C91.7289 3.00664 91.8002 2.87969 91.9199 2.76021C92.0399 2.65536 92.171 2.59161 92.3132 2.56904C92.4558 2.54731 92.5938 2.53588 92.7283 2.53588H101.219V0.179277H91.1339C90.834 0.179277 90.5087 0.209595 90.157 0.269383C89.8047 0.328794 89.5015 0.501078 89.247 0.785192C89.0823 0.979955 88.9512 1.2227 88.8541 1.51456C88.7566 1.80642 88.7082 2.10896 88.7082 2.4233V13.5533C88.7082 13.8529 88.7377 14.1705 88.7979 14.5071C88.8578 14.8435 89.0225 15.1391 89.2921 15.3933C89.5466 15.6482 89.8236 15.794 90.1227 15.8312C90.4226 15.8685 90.7443 15.8869 91.0889 15.8869H101.309ZM75.217 15.8869H83.3485C83.8874 15.8869 84.4712 15.8538 85.1007 15.7862C85.7296 15.7191 86.2688 15.5431 86.7179 15.259C87.0473 15.0494 87.3055 14.7985 87.4927 14.5071C87.6796 14.2156 87.8222 13.9086 87.9197 13.5877C88.0168 13.2655 88.0766 12.9397 88.0995 12.611C88.1217 12.2822 88.1328 11.9752 88.1328 11.6911C88.1328 11.0473 88.0958 10.5238 88.0205 10.1205C87.9455 9.71612 87.8333 9.38742 87.6837 9.13315C87.4739 8.77348 87.1854 8.49711 86.8187 8.30263C86.452 8.10824 86.0512 7.99603 85.6173 7.96581V7.87617C86.1262 7.75659 86.5679 7.5249 86.9424 7.18033C87.3617 6.79175 87.6161 6.36124 87.7062 5.89001C87.7959 5.41926 87.8406 4.92961 87.8406 4.42051C87.8406 3.83716 87.7882 3.2575 87.6837 2.68162C87.5788 2.10565 87.3092 1.59277 86.8748 1.14449C86.6204 0.904677 86.3548 0.718037 86.0775 0.583724C85.8009 0.449034 85.5198 0.351278 85.235 0.291867C84.9507 0.2317 84.6663 0.198166 84.3815 0.190421C84.0975 0.183337 83.8276 0.179277 83.5731 0.179277H75.3072V2.53588H82.899C83.1388 2.53588 83.3785 2.551 83.6178 2.58047C83.8575 2.61041 84.0746 2.70779 84.2693 2.87232C84.5389 3.09665 84.6921 3.3734 84.7302 3.7021C84.7671 4.03164 84.7856 4.3456 84.7856 4.64483C84.7856 4.88427 84.7712 5.1647 84.7409 5.48641C84.7113 5.80774 84.5991 6.07344 84.4036 6.28303C84.2397 6.46268 83.9808 6.58962 83.6292 6.66415C83.2772 6.73943 82.8466 6.77664 82.3377 6.77664H75.5314V9.13315H82.7196C83.3485 9.13315 83.7862 9.18926 84.0336 9.30147C84.2807 9.41321 84.4418 9.49916 84.516 9.55895C84.7856 9.79876 84.947 10.0902 84.9998 10.4345C85.0519 10.7787 85.0777 11.0776 85.0777 11.3322C85.0777 11.4967 85.0703 11.6687 85.0556 11.8483C85.0408 12.0277 85.0108 12.2033 84.9655 12.3755C84.9207 12.5475 84.8461 12.708 84.7409 12.8578C84.6363 13.0076 84.4938 13.1346 84.3143 13.2393C84.1943 13.3142 84.0447 13.3707 83.8652 13.4079C83.6854 13.4452 83.5018 13.4714 83.3149 13.4865C83.1276 13.5012 82.9519 13.5124 82.7868 13.5197C82.6225 13.5275 82.5101 13.5308 82.4499 13.5308H75.217V15.8869ZM65.9629 3.41099C66.0076 3.29113 66.0674 3.15313 66.1424 2.99521C66.2177 2.83804 66.3071 2.76021 66.412 2.76021C66.5169 2.76021 66.6066 2.83804 66.6816 2.99521C66.7562 3.15313 66.8168 3.29113 66.8614 3.41099L69.4219 9.80651H63.3798L65.9629 3.41099ZM57.899 15.8869H61.0209L62.6157 11.9151H70.1858L71.803 15.8869H74.9253L68.9951 1.77251C68.7103 1.11465 68.3772 0.65381 67.9953 0.392552C67.6137 0.13139 67.0857 3.8147e-06 66.412 3.8147e-06C65.708 3.8147e-06 65.1729 0.13139 64.8058 0.392552C64.439 0.65381 64.1137 1.11465 63.8289 1.77251L57.899 15.8869ZM40.6479 15.8869H43.7926L48.7563 3.34346C48.7867 3.25382 48.8276 3.15644 48.8801 3.05169C48.9326 2.94723 49.0186 2.89452 49.1382 2.89452C49.2579 2.89452 49.3406 2.94317 49.3856 3.04055C49.4304 3.13764 49.4681 3.23909 49.498 3.34346L54.4621 15.8869H57.6069L51.5418 1.48065C51.4672 1.30128 51.3771 1.12164 51.2722 0.942743C51.1677 0.762999 51.0251 0.605824 50.8453 0.471134C50.6661 0.336161 50.4409 0.224333 50.172 0.134697C49.902 0.0450611 49.5578 3.8147e-06 49.1382 3.8147e-06C48.7191 3.8147e-06 48.3748 0.0450611 48.1053 0.134697C47.8356 0.224333 47.6111 0.336161 47.4313 0.471134C47.2513 0.605824 47.1095 0.762999 47.0047 0.942743C46.8998 1.12164 46.81 1.30128 46.735 1.48065L40.6479 15.8869Z" fill="#0994DC"/>
<path fill-rule="evenodd" clip-rule="evenodd" d="M96.5544 35.7007H100.158L105.847 22.5378C105.882 22.4437 105.929 22.3415 105.989 22.2319C106.049 22.122 106.148 22.067 106.285 22.067C106.422 22.067 106.517 22.1175 106.568 22.2197C106.62 22.3215 106.662 22.4278 106.697 22.5378L112.386 35.7007H115.991L109.039 20.5834C108.954 20.3949 108.851 20.2067 108.731 20.0182C108.611 19.8296 108.448 19.6651 108.241 19.5234C108.035 19.3825 107.778 19.2648 107.47 19.1703C107.161 19.0766 106.766 19.0294 106.285 19.0294C105.805 19.0294 105.41 19.0766 105.101 19.1703C104.792 19.2648 104.534 19.3825 104.329 19.5234C104.123 19.6651 103.959 19.8296 103.839 20.0182C103.719 20.2067 103.616 20.3949 103.531 20.5834L96.5544 35.7007Z" fill="#605A75"/>
<path fill-rule="evenodd" clip-rule="evenodd" d="M76.8229 35.7007H80.4272L86.1163 22.5378C86.1506 22.4437 86.1979 22.3415 86.2581 22.2319C86.3182 22.122 86.4168 22.067 86.5543 22.067C86.6917 22.067 86.7859 22.1175 86.8372 22.2197C86.8889 22.3215 86.9318 22.4278 86.9661 22.5378L92.6552 35.7007H96.2594L89.3087 20.5834C89.223 20.3949 89.12 20.2067 89 20.0182C88.8799 19.8296 88.7167 19.6651 88.511 19.5234C88.3049 19.3825 88.0475 19.2648 87.7383 19.1703C87.4295 19.0766 87.0348 19.0294 86.5543 19.0294C86.0735 19.0294 85.6786 19.0766 85.3698 19.1703C85.0611 19.2648 84.8033 19.3825 84.5976 19.5234C84.3916 19.6651 84.2286 19.8296 84.1086 20.0182C83.9886 20.2067 83.8855 20.3949 83.7995 20.5834L76.8229 35.7007Z" fill="#605A75"/>
<path fill-rule="evenodd" clip-rule="evenodd" d="M61.8147 27.4593C61.8147 26.1879 61.9132 25.2024 62.1104 24.504C62.308 23.8051 62.5784 23.2525 62.9215 22.8441C63.4534 22.2474 64.1229 21.8744 64.9295 21.7254C65.7361 21.5763 66.6114 21.5018 67.5554 21.5018C68.4824 21.5018 69.3574 21.5763 70.1814 21.7254C71.005 21.8744 71.6827 22.2474 72.2152 22.8441C72.3523 23.0009 72.4896 23.1971 72.6266 23.4325C72.7644 23.6683 72.8845 23.9664 72.987 24.3276C73.0901 24.6885 73.1718 25.1242 73.2319 25.6341C73.2918 26.1444 73.322 26.7527 73.322 27.4593C73.322 28.1182 73.2918 28.6994 73.2319 29.2015C73.1718 29.704 73.0901 30.1358 72.987 30.4966C72.8845 30.8578 72.7685 31.164 72.64 31.4149C72.511 31.6662 72.3696 31.8783 72.2152 32.051C71.9404 32.3649 71.6313 32.6121 71.2882 32.793C70.9451 32.973 70.5717 33.1107 70.1684 33.2047C69.7651 33.2992 69.3448 33.3578 68.9071 33.3815C68.4695 33.4047 68.0186 33.4165 67.5554 33.4165C67.0919 33.4165 66.6372 33.4047 66.1908 33.3815C65.745 33.3578 65.3244 33.2992 64.9295 33.2047C64.5347 33.1107 64.1658 32.973 63.8227 32.793C63.4792 32.6121 63.1789 32.3649 62.9215 32.051C62.7671 31.8783 62.6253 31.6706 62.4967 31.4267C62.3682 31.1835 62.2522 30.8773 62.1493 30.5084C62.0462 30.1394 61.9649 29.7081 61.9048 29.2133C61.8445 28.719 61.8147 28.1345 61.8147 27.4593ZM67.5809 19.0294C67.0321 19.0294 66.4441 19.0375 65.8177 19.0526C65.1913 19.0685 64.5605 19.1312 63.9257 19.2415C63.2905 19.3507 62.6685 19.5234 62.0591 19.7595C61.4497 19.9946 60.8965 20.3326 60.399 20.7716C59.9007 21.1959 59.5148 21.6785 59.2404 22.2197C58.9657 22.7617 58.7596 23.327 58.6222 23.9155C58.4852 24.504 58.3991 25.1002 58.3651 25.7052C58.3304 26.3093 58.3134 26.894 58.3134 27.4593C58.3134 27.9305 58.3263 28.4562 58.3521 29.0366C58.3777 29.6177 58.4548 30.2103 58.5838 30.8146C58.7127 31.4194 58.9184 32.0119 59.2017 32.5926C59.4845 33.1734 59.8842 33.6914 60.399 34.1467C60.8965 34.5865 61.4497 34.9237 62.0591 35.1594C62.6685 35.3948 63.2945 35.5676 63.9386 35.6771C64.582 35.7871 65.2172 35.8498 65.8436 35.8657C66.4696 35.8812 67.0491 35.8889 67.5809 35.8889C68.0961 35.8889 68.6708 35.8812 69.306 35.8657C69.9409 35.8498 70.5802 35.7871 71.2236 35.6771C71.8673 35.5676 72.4937 35.3948 73.1031 35.1594C73.7124 34.9237 74.2657 34.5865 74.7636 34.1467C75.2271 33.7386 75.596 33.2593 75.8707 32.71C76.1452 32.1609 76.3513 31.588 76.4883 30.9913C76.6257 30.3947 76.7158 29.7941 76.759 29.1901C76.8019 28.5858 76.8229 28.0087 76.8229 27.4593C76.8229 26.9254 76.8059 26.3524 76.772 25.74C76.7373 25.1279 76.6471 24.5235 76.5012 23.9269C76.3557 23.3303 76.1452 22.7574 75.8707 22.2083C75.596 21.659 75.2271 21.1796 74.7636 20.7716C74.2657 20.3326 73.7124 19.9946 73.1031 19.7595C72.4937 19.5234 71.8673 19.3507 71.2236 19.2415C70.5802 19.1312 69.9454 19.0685 69.3186 19.0526C68.6922 19.0375 68.1131 19.0294 67.5809 19.0294Z" fill="#605A75"/>
<path fill-rule="evenodd" clip-rule="evenodd" d="M58.5195 35.7007L51.5943 27.3413L58.3134 19.2175H54.2715L49.6634 25.1518L45.0554 19.2175H41.0139L47.733 27.3413L40.8077 35.7007H44.8493L49.6634 29.5313L54.4776 35.7007H58.5195Z" fill="#605A75"/>
<mask id="mask0_20_67" style="mask-type:luminance" maskUnits="userSpaceOnUse" x="3" y="21" width="20" height="19">
<path d="M4.5717 39.2811H4.57207C5.53157 40.2396 7.10195 40.2396 8.06146 39.2811L21.7528 25.6034C22.7122 24.6449 22.7122 23.0761 21.7528 22.1175C20.7929 21.1586 19.2225 21.1586 18.263 22.1172L4.5717 35.7948C3.61182 36.7533 3.61182 38.3222 4.5717 39.2811Z" fill="white"/>
</mask>
<g mask="url(#mask0_20_67)">
<path d="M4.5717 39.2811H4.57207C5.53157 40.2396 7.10195 40.2396 8.06146 39.2811L21.7528 25.6034C22.7122 24.6449 22.7122 23.0761 21.7528 22.1175C20.7929 21.1586 19.2225 21.1586 18.263 22.1172L4.5717 35.7948C3.61182 36.7533 3.61182 38.3222 4.5717 39.2811Z" fill="url(#paint0_linear_20_67)"/>
</g>
<mask id="mask1_20_67" style="mask-type:luminance" maskUnits="userSpaceOnUse" x="0" y="3" width="19" height="20">
<path d="M0.719631 4.59127C-0.239877 5.55025 -0.239877 7.11865 0.719631 8.07763L14.411 21.7552C15.3704 22.7142 16.9408 22.7142 17.9007 21.7552V21.7548C18.8602 20.7963 18.8602 19.2274 17.9007 18.2686L4.2094 4.59127C3.24988 3.63238 1.67951 3.63238 0.719631 4.59127Z" fill="white"/>
</mask>
<g mask="url(#mask1_20_67)">
<path d="M0.719631 4.59127C-0.239877 5.55025 -0.239877 7.11865 0.719631 8.07763L14.411 21.7552C15.3704 22.7142 16.9408 22.7142 17.9007 21.7552V21.7548C18.8602 20.7963 18.8602 19.2274 17.9007 18.2686L4.2094 4.59127C3.24988 3.63238 1.67951 3.63238 0.719631 4.59127Z" fill="url(#paint1_linear_20_67)"/>
</g>
<mask id="mask2_20_67" style="mask-type:luminance" maskUnits="userSpaceOnUse" x="17" y="0" width="20" height="19">
<path d="M35.4548 0.729465H35.4544C34.5004 -0.234995 32.9301 -0.243874 31.9646 0.709538L18.1954 14.3081C17.2304 15.2616 17.2215 16.8307 18.1758 17.7945H18.1762C19.1302 18.7592 20.7005 18.7678 21.6656 17.8147L35.4348 4.21535C36.3999 3.26232 36.409 1.69393 35.4548 0.729465Z" fill="white"/>
</mask>
<g mask="url(#mask2_20_67)">
<path d="M35.4548 0.729465H35.4544C34.5004 -0.234995 32.9301 -0.243874 31.9646 0.709538L18.1954 14.3081C17.2304 15.2616 17.2215 16.8307 18.1758 17.7945H18.1762C19.1302 18.7592 20.7005 18.7678 21.6656 17.8147L35.4348 4.21535C36.3999 3.26232 36.409 1.69393 35.4548 0.729465Z" fill="url(#paint2_linear_20_67)"/>
</g>
<mask id="mask3_20_67" style="mask-type:luminance" maskUnits="userSpaceOnUse" x="4" y="13" width="15" height="19">
<path d="M5.01489 31.1415C5.97476 32.1008 7.54477 32.1008 8.50465 31.1415L17.9007 21.7552C18.8602 20.7963 18.8602 19.2278 17.9007 18.2689V18.2686C15.421 15.7917 16.5629 16.9326 12.6658 13.039C14.5852 14.9569 14.5852 18.0944 12.6658 20.0123L5.01489 27.6552C4.05501 28.6137 4.05501 30.183 5.01489 31.1415Z" fill="white"/>
</mask>
<g mask="url(#mask3_20_67)">
<path d="M5.01489 31.1415C5.97476 32.1008 7.54477 32.1008 8.50465 31.1415L17.9007 21.7552C18.8602 20.7963 18.8602 19.2278 17.9007 18.2689V18.2686C15.421 15.7917 16.5629 16.9326 12.6658 13.039C14.5852 14.9569 14.5852 18.0944 12.6658 20.0123L5.01489 27.6552C4.05501 28.6137 4.05501 30.183 5.01489 31.1415Z" fill="url(#paint3_linear_20_67)"/>
</g>
<mask id="mask4_20_67" style="mask-type:luminance" maskUnits="userSpaceOnUse" x="13" y="21" width="19" height="15">
<path d="M31.1484 34.9897C32.1082 34.0316 32.1082 32.4624 31.1484 31.5038L21.7527 22.1175C20.7929 21.1586 19.2225 21.1586 18.263 22.1175C15.7833 24.5948 16.9253 23.4536 13.0282 27.3467C14.9471 25.429 18.0883 25.429 20.0077 27.3467L27.6587 34.9897C28.6185 35.9487 30.1886 35.9487 31.1484 34.9897Z" fill="white"/>
</mask>
<g mask="url(#mask4_20_67)">
<path d="M31.1484 34.9897C32.1082 34.0316 32.1082 32.4624 31.1484 31.5038L21.7527 22.1175C20.7929 21.1586 19.2225 21.1586 18.263 22.1175C15.7833 24.5948 16.9253 23.4536 13.0282 27.3467C14.9471 25.429 18.0883 25.429 20.0077 27.3467L27.6587 34.9897C28.6185 35.9487 30.1886 35.9487 31.1484 34.9897Z" fill="url(#paint4_linear_20_67)"/>
</g>
<mask id="mask5_20_67" style="mask-type:luminance" maskUnits="userSpaceOnUse" x="8" y="4" width="19" height="15">
<path d="M8.85403 4.86802C7.88862 5.8218 7.87976 7.39058 8.83371 8.35428L18.1758 17.7945C19.1302 18.7592 20.7005 18.7677 21.6656 17.8144C24.1593 15.3512 23.011 16.4858 26.9304 12.6154C25.0003 14.5214 21.8591 14.5037 19.9508 12.5756L12.3434 4.88795C11.3891 3.92424 9.81908 3.91461 8.85403 4.86802Z" fill="white"/>
</mask>
<g mask="url(#mask5_20_67)">
<path d="M8.85403 4.86802C7.88862 5.8218 7.87976 7.39058 8.83371 8.35428L18.1758 17.7945C19.1302 18.7592 20.7005 18.7677 21.6656 17.8144C24.1593 15.3512 23.011 16.4858 26.9304 12.6154C25.0003 14.5214 21.8591 14.5037 19.9508 12.5756L12.3434 4.88795C11.3891 3.92424 9.81908 3.91461 8.85403 4.86802Z" fill="url(#paint5_linear_20_67)"/>
</g>
<path fill-rule="evenodd" clip-rule="evenodd" d="M12.6658 20.0123C14.5852 18.0944 14.5852 14.9569 12.6658 13.039C13.8315 15.0564 13.3964 17.5768 11.7606 19.1072L12.6658 20.0123Z" fill="#2056AE"/>
<path fill-rule="evenodd" clip-rule="evenodd" d="M19.9508 12.5756C21.8484 14.493 24.9651 14.5214 26.8978 12.6468L26.9304 12.6154C24.9046 13.7681 22.3836 13.3187 20.8608 11.6756L19.9508 12.5756Z" fill="#2056AE"/>
<path fill-rule="evenodd" clip-rule="evenodd" d="M20.0077 27.3467C18.0883 25.429 14.9471 25.429 13.0282 27.3467C15.0473 26.1819 17.5704 26.617 19.1021 28.2515L20.0077 27.3467Z" fill="#2056AE"/>
<defs>
<linearGradient id="paint0_linear_20_67" x1="18.7903" y1="37.8095" x2="7.54956" y2="23.5719" gradientUnits="userSpaceOnUse">
<stop stop-color="#0994DC"/>
<stop offset="1" stop-color="#714DAB"/>
</linearGradient>
<linearGradient id="paint1_linear_20_67" x1="0.24974" y1="12.6916" x2="18.3708" y2="13.6603" gradientUnits="userSpaceOnUse">
<stop stop-color="#0994DC"/>
<stop offset="1" stop-color="#714DAB"/>
</linearGradient>
<linearGradient id="paint2_linear_20_67" x1="19.7254" y1="3.60018" x2="33.8949" y2="14.9335" gradientUnits="userSpaceOnUse">
<stop stop-color="#0994DC"/>
<stop offset="1" stop-color="#714DAB"/>
</linearGradient>
<linearGradient id="paint3_linear_20_67" x1="4.64109" y1="24.5845" x2="18.2693" y2="20.0716" gradientUnits="userSpaceOnUse">
<stop stop-color="#0994DC"/>
<stop offset="1" stop-color="#714DAB"/>
</linearGradient>
<linearGradient id="paint4_linear_20_67" x1="13.1755" y1="27.1949" x2="31.4824" y2="29.9146" gradientUnits="userSpaceOnUse">
<stop stop-color="#0994DC"/>
<stop offset="1" stop-color="#714DAB"/>
</linearGradient>
<linearGradient id="paint5_linear_20_67" x1="11.8323" y1="5.60126" x2="23.4317" y2="17.1139" gradientUnits="userSpaceOnUse">
<stop stop-color="#0994DC"/>
<stop offset="1" stop-color="#714DAB"/>
</linearGradient>
</defs>
</svg>
