<svg width="32" height="32" viewBox="0 0 32 32" fill="none" xmlns="http://www.w3.org/2000/svg">
<path d="M16.0001 20.4446C16.5081 20.4456 17.0093 20.3262 17.4641 20.0957L19.6459 18.9846C20.758 18.4222 21.4594 17.2648 21.4546 16.0002V12.7036C21.4585 11.4401 20.7571 10.2842 19.6459 9.72253L17.4641 8.61145C16.5422 8.14479 15.459 8.14479 14.5372 8.61145L12.3553 9.72253C11.2437 10.2839 10.5419 11.4399 10.5455 12.7036V16.0002C10.5415 17.264 11.2429 18.4204 12.3543 18.9824L14.5361 20.0935C14.9907 20.3247 15.4919 20.4449 16.0001 20.4446ZM12.7273 16.0002V12.7036C12.7291 12.5903 12.7479 12.4778 12.783 12.3703L15.1612 13.5813C15.6893 13.8502 16.3109 13.8502 16.839 13.5813L19.2172 12.3703C19.2523 12.4778 19.2711 12.5903 19.2729 12.7036V16.0002C19.2746 16.4218 19.0405 16.8076 18.6696 16.9946L16.4878 18.1057C16.1801 18.2608 15.8191 18.2608 15.5114 18.1057L13.3296 16.9946C12.959 16.8073 12.7254 16.4216 12.7273 16.0002ZM23.6364 27.1112H20.6812L24.4851 23.5312C29.1715 18.7583 29.1716 11.0197 24.4854 6.24658C19.7992 1.47346 12.2013 1.47341 7.51486 6.24632C2.82847 11.0192 2.82837 18.7579 7.51461 23.531C7.52489 23.5414 11.319 27.1112 11.319 27.1112H8.36373C7.76124 27.1112 7.27284 27.6086 7.27284 28.2223C7.27284 28.8359 7.76124 29.3334 8.36373 29.3334H23.6365C24.239 29.3334 24.7274 28.8359 24.7274 28.2223C24.7274 27.6087 24.2389 27.1112 23.6364 27.1112ZM9.05755 7.81807C12.8834 3.90395 19.1002 3.88979 22.9432 7.78641C26.7862 11.683 26.8001 18.0149 22.9743 21.929L18.627 26.019C17.1432 27.4434 14.8242 27.4351 13.3503 26.0001L9.05755 21.9601C5.22922 18.0524 5.22927 11.7258 9.05755 7.81807Z" fill="#427CDE"/>
</svg>
