<svg width="32" height="32" viewBox="0 0 32 32" fill="none" xmlns="http://www.w3.org/2000/svg">
<path d="M23.7778 7.11039H22.5545C22.0378 4.57859 19.7934 2.66669 17.1111 2.66669H8.22224C5.15891 2.66669 2.66669 5.15849 2.66669 8.22132V22.5012C2.66669 23.3832 3.15002 24.1898 3.92669 24.6053C4.28002 24.7952 4.6678 24.8885 5.05446 24.8885C5.51669 24.8885 5.9778 24.7541 6.37669 24.4886L9.65446 22.3034C10.4222 24.4531 12.4778 25.9961 14.8889 25.9961H21.2189L25.6234 28.9323C26.0234 29.1989 26.4834 29.3334 26.9456 29.3334C27.3322 29.3334 27.7189 29.2389 28.0734 29.049C28.8511 28.6335 29.3334 27.8269 29.3334 26.9449V12.665C29.3334 9.6022 26.8411 7.11039 23.7778 7.11039ZM5.14446 22.64C5.12335 22.6534 5.06113 22.6933 4.97558 22.6478C4.8878 22.6011 4.8878 22.5267 4.8878 22.5023V8.22132C4.8878 6.38385 6.38335 4.88854 8.22113 4.88854H17.11C18.9478 4.88854 20.4434 6.38385 20.4434 8.22132V15.9978C20.4434 17.8353 18.9478 19.3306 17.11 19.3306H10.4434C10.08 19.3306 9.84224 19.5072 9.81558 19.525L5.14446 22.64ZM27.1111 26.946C27.1111 26.9693 27.1111 27.0448 27.0234 27.0915C26.9356 27.1371 26.8756 27.0971 26.8556 27.0837L22.1722 23.9609C21.99 23.8398 21.7756 23.7743 21.5556 23.7743H14.8889C13.44 23.7743 12.2056 22.8455 11.7467 21.5524H17.1111C20.1745 21.5524 22.6667 19.0606 22.6667 15.9978V9.33224H23.7778C25.6156 9.33224 27.1111 10.8275 27.1111 12.665V26.946Z" fill="#427CDE"/>
</svg>
