<svg width="32" height="32" viewBox="0 0 32 32" fill="none" xmlns="http://www.w3.org/2000/svg">
<path d="M17.1457 3.17045C17.1457 2.86052 17.2689 2.56329 17.488 2.34414C17.7072 2.12498 18.0044 2.00187 18.3143 2.00187C21.4125 2.00527 24.3828 3.23755 26.5736 5.42833C28.7643 7.61912 29.9966 10.5895 30 13.6877C30 13.9977 29.8769 14.2949 29.6577 14.514C29.4386 14.7332 29.1414 14.8563 28.8314 14.8563C28.5215 14.8563 28.2243 14.7332 28.0051 14.514C27.786 14.2949 27.6629 13.9977 27.6629 13.6877C27.6601 11.2092 26.6742 8.8329 24.9217 7.08028C23.1691 5.32766 20.7928 4.34182 18.3143 4.33904C18.0044 4.33904 17.7072 4.21592 17.488 3.99677C17.2689 3.77762 17.1457 3.48038 17.1457 3.17045ZM18.3143 9.01338C19.554 9.01338 20.7429 9.50586 21.6195 10.3825C22.4961 11.2591 22.9886 12.448 22.9886 13.6877C22.9886 13.9977 23.1117 14.2949 23.3308 14.514C23.55 14.7332 23.8472 14.8563 24.1572 14.8563C24.4671 14.8563 24.7643 14.7332 24.9835 14.514C25.2026 14.2949 25.3257 13.9977 25.3257 13.6877C25.3239 11.8287 24.5846 10.0464 23.2701 8.73189C21.9556 7.41738 20.1733 6.67807 18.3143 6.67621C18.0044 6.67621 17.7072 6.79933 17.488 7.01848C17.2689 7.23763 17.1457 7.53487 17.1457 7.8448C17.1457 8.15473 17.2689 8.45196 17.488 8.67111C17.7072 8.89026 18.0044 9.01338 18.3143 9.01338ZM28.9401 21.5628C29.6173 22.2419 29.9976 23.1618 29.9976 24.1209C29.9976 25.0799 29.6173 25.9998 28.9401 26.6789L27.8767 27.9047C18.3061 37.0676 -4.98346 13.7836 4.03789 4.18245L5.38175 3.01386C6.06159 2.35557 6.97326 1.99141 7.91954 2.00015C8.86581 2.0089 9.7706 2.38986 10.4381 3.06061C10.4744 3.09683 12.6397 5.90962 12.6397 5.90962C13.2822 6.58463 13.6399 7.48128 13.6384 8.4132C13.6369 9.34512 13.2763 10.2406 12.6316 10.9135L11.2784 12.615C12.0272 14.4346 13.1283 16.0883 14.5182 17.4811C15.9082 18.8738 17.5596 19.9782 19.3777 20.7308L21.0897 19.3694C21.7626 18.7252 22.658 18.365 23.5896 18.3637C24.5212 18.3624 25.4175 18.72 26.0923 19.3624C26.0923 19.3624 28.9039 21.5266 28.9401 21.5628ZM27.3322 23.262C27.3322 23.262 24.5358 21.1106 24.4995 21.0744C24.2588 20.8357 23.9335 20.7017 23.5945 20.7017C23.2555 20.7017 22.9302 20.8357 22.6894 21.0744C22.6579 21.1071 20.3009 22.985 20.3009 22.985C20.142 23.1114 19.953 23.1943 19.7524 23.2254C19.5518 23.2566 19.3465 23.2349 19.1568 23.1626C16.8015 22.2857 14.6622 20.9128 12.8838 19.1369C11.1053 17.3611 9.7293 15.2238 8.8489 12.8697C8.77083 12.6774 8.74538 12.4678 8.77516 12.2624C8.80494 12.0571 8.88888 11.8633 9.01834 11.7011C9.01834 11.7011 10.8962 9.34293 10.9278 9.31254C11.1665 9.0718 11.3004 8.7465 11.3004 8.40747C11.3004 8.06845 11.1665 7.74315 10.9278 7.5024C10.8916 7.46734 8.74022 4.66858 8.74022 4.66858C8.49587 4.44948 8.17697 4.33214 7.84889 4.34061C7.52081 4.34909 7.20839 4.48273 6.97568 4.71415L5.63182 5.88274C-0.961245 13.8104 19.2211 32.8736 26.1683 26.3085L27.2328 25.0814C27.4823 24.8504 27.6321 24.5313 27.6507 24.1918C27.6692 23.8523 27.555 23.5188 27.3322 23.262Z" fill="white"/>
</svg>
