<svg width="32" height="32" viewBox="0 0 32 32" fill="none" xmlns="http://www.w3.org/2000/svg">
<path d="M16 30C23.7198 30 30 23.7198 30 16C30 8.28017 23.7198 2 16 2C8.28017 2 2 8.28016 2 16C2 23.7198 8.28017 30 16 30ZM16 4.33333C22.433 4.33333 27.6667 9.567 27.6667 16C27.6667 22.433 22.433 27.6667 16 27.6667C9.567 27.6667 4.33333 22.433 4.33334 16C4.33334 9.567 9.567 4.33333 16 4.33333ZM9.38967 20.3703C8.909 19.941 8.867 19.2037 9.29633 18.723C9.52617 18.4652 9.84584 18.3333 10.1667 18.3333C10.4432 18.3333 10.7208 18.4313 10.9437 18.6297C10.9647 18.6483 13.2805 20.6667 16 20.6667C18.7195 20.6667 21.0353 18.6483 21.0587 18.6273C21.5405 18.2003 22.2767 18.2447 22.7048 18.7253C23.1318 19.206 23.091 19.941 22.6103 20.3692C22.4902 20.4765 19.6248 22.9988 16 22.9988C12.3752 22.9988 9.50984 20.4765 9.38967 20.3692L9.38967 20.3703ZM10.1667 13.0833C10.1667 12.1173 10.9507 11.3333 11.9167 11.3333C12.8827 11.3333 13.6667 12.1173 13.6667 13.0833C13.6667 14.0493 12.8827 14.8333 11.9167 14.8333C10.9507 14.8333 10.1667 14.0493 10.1667 13.0833ZM18.3333 13.0833C18.3333 12.1173 19.1173 11.3333 20.0833 11.3333C21.0493 11.3333 21.8333 12.1173 21.8333 13.0833C21.8333 14.0493 21.0493 14.8333 20.0833 14.8333C19.1173 14.8333 18.3333 14.0493 18.3333 13.0833Z" fill="white"/>
</svg>
