<svg width="20" height="20" viewBox="0 0 20 20" fill="none" xmlns="http://www.w3.org/2000/svg">
<path d="M0 9.6C0 5.07333 0 2.81333 1.4 1.4C2.82 0 5.08 0 9.6 0H10.4C14.9267 0 17.1867 0 18.6 1.4C20 2.82 20 5.08 20 9.6V10.4C20 14.9267 20 17.1867 18.6 18.6C17.18 20 14.92 20 10.4 20H9.6C5.07333 20 2.81333 20 1.4 18.6C0 17.18 0 14.92 0 10.4V9.6Z" fill="#0077FF"/>
<path d="M10.6402 14.4066C6.0802 14.4066 3.4802 11.2866 3.37354 6.08662H5.66687C5.7402 9.89996 7.4202 11.5133 8.75354 11.8466V6.08662H10.9069V9.37329C12.2202 9.23329 13.6069 7.73329 14.0735 6.07996H16.2202C16.0452 6.9358 15.6955 7.74635 15.1931 8.46098C14.6907 9.1756 14.0463 9.77893 13.3002 10.2333C14.1328 10.6477 14.8681 11.2339 15.4576 11.9533C16.0471 12.6726 16.4775 13.5088 16.7202 14.4066H14.3535C13.8469 12.8266 12.5802 11.6 10.9069 11.4333V14.4066H10.6469H10.6402Z" fill="white"/>
</svg>
